<svg width="24" height="25" viewBox="0 0 24 25" fill="none" xmlns="http://www.w3.org/2000/svg">
<path d="M10.5 4.74792H3.75V11.4979H10.5V4.74792Z" stroke="black" stroke-width="1.5" stroke-linecap="round" stroke-linejoin="round"/>
<path d="M20.25 14.4979H13.5V21.2479H20.25V14.4979Z" stroke="black" stroke-width="1.5" stroke-linecap="round" stroke-linejoin="round"/>
<path d="M10.5 14.4979H3.75V21.2479H10.5V14.4979Z" stroke="black" stroke-width="1.5" stroke-linecap="round" stroke-linejoin="round"/>
<path fill-rule="evenodd" clip-rule="evenodd" d="M18.0947 11.251C18.0947 11.8033 17.647 12.251 17.0947 12.251C16.5424 12.251 16.0947 11.8033 16.0947 11.251L16.0947 8.99792H14C13.4477 8.99792 13 8.55021 13 7.99792C13 7.44564 13.4477 6.99792 14 6.99792H16.0947L16.0947 4.74792C16.0947 4.19564 16.5424 3.74792 17.0947 3.74792C17.647 3.74792 18.0947 4.19564 18.0947 4.74792V6.99792H20.5031C21.0553 6.99792 21.5031 7.44564 21.5031 7.99792C21.5031 8.55021 21.0553 8.99792 20.5031 8.99792H18.0947V11.251Z" fill="black"/>
</svg>
