<svg width="24" height="24" viewBox="0 0 24 24" fill="none" xmlns="http://www.w3.org/2000/svg">
<path d="M12 21.9987C17.5228 21.9987 22 17.5216 22 11.9989C22 6.47611 17.5228 1.99902 12 1.99902C6.47715 1.99902 2 6.47611 2 11.9989C2 17.5216 6.47715 21.9987 12 21.9987Z" stroke="black" stroke-width="1.5" stroke-linecap="round" stroke-linejoin="round"/>
<path d="M15 7.99902H11.1667C9.97 7.99902 9 8.89446 9 9.99902C9 11.1036 9.97 11.999 11.1667 11.999H12.8333C14.03 11.999 15 12.8944 15 13.999C15 15.1036 14.03 15.999 12.8333 15.999H9" stroke="black" stroke-width="1.5" stroke-linecap="round" stroke-linejoin="round"/>
<path d="M12 5.99902V7.99902" stroke="black" stroke-width="1.5" stroke-linecap="round" stroke-linejoin="round"/>
<path d="M12 15.999L12 17.999" stroke="black" stroke-width="1.5" stroke-linecap="round" stroke-linejoin="round"/>
</svg>
