<svg width="24" height="24" viewBox="0 0 24 24" fill="none" xmlns="http://www.w3.org/2000/svg">
<path d="M10.6327 2.543C11.3745 1.75631 12.6255 1.75631 13.3673 2.543C14.1576 3.3811 15.3204 3.75889 16.4524 3.54537C17.5149 3.34495 18.527 4.08027 18.6647 5.15271C18.8114 6.29526 19.5301 7.28437 20.5714 7.77698C21.5488 8.23936 21.9354 9.42913 21.4164 10.3777C20.8635 11.3883 20.8635 12.6109 21.4164 13.6215C21.9354 14.57 21.5488 15.7598 20.5714 16.2222C19.5301 16.7148 18.8114 17.7039 18.6647 18.8465C18.527 19.9189 17.5149 20.6542 16.4524 20.4538C15.3204 20.2403 14.1576 20.6181 13.3673 21.4562C12.6255 22.2429 11.3745 22.2429 10.6327 21.4562C9.8424 20.6181 8.67961 20.2403 7.54764 20.4538C6.48511 20.6542 5.47302 19.9189 5.3353 18.8465C5.18857 17.7039 4.46992 16.7148 3.42863 16.2222C2.45123 15.7598 2.06464 14.57 2.58359 13.6215C3.13647 12.6109 3.13647 11.3883 2.58359 10.3777C2.06464 9.42913 2.45123 8.23936 3.42863 7.77698C4.46992 7.28437 5.18857 6.29526 5.3353 5.15271C5.47302 4.08027 6.48511 3.34495 7.54764 3.54537C8.67961 3.75889 9.8424 3.3811 10.6327 2.543Z" stroke="black" stroke-width="1.5"/>
<path d="M9 14.9998L15 8.99976" stroke="black" stroke-width="1.5" stroke-linecap="round" stroke-linejoin="round"/>
<path d="M11.25 8.39976C11.25 9.31102 10.5112 10.0498 9.59995 10.0498C8.68868 10.0498 7.94995 9.31102 7.94995 8.39976C7.94995 7.48849 8.68868 6.74976 9.59995 6.74976C10.5112 6.74976 11.25 7.48849 11.25 8.39976Z" stroke="black" stroke-width="1.5"/>
<path d="M16.05 15.5997C16.05 16.511 15.3113 17.2497 14.4 17.2497C13.4887 17.2497 12.75 16.511 12.75 15.5997C12.75 14.6884 13.4887 13.9497 14.4 13.9497C15.3113 13.9497 16.05 14.6884 16.05 15.5997Z" stroke="black" stroke-width="1.5"/>
</svg>
